<svg xmlns="http://www.w3.org/2000/svg" xmlns:xlink="http://www.w3.org/1999/xlink" width="250" zoomAndPan="magnify" viewBox="0 0 187.5 187.499992" height="250" preserveAspectRatio="xMidYMid meet" version="1.0"><defs><clipPath id="id1"><path d="M 84 94 L 97 94 L 97 102 L 84 102 Z M 84 94 " clip-rule="nonzero"/></clipPath><clipPath id="id2"><path d="M 79.371094 92.488281 L 100.160156 80.492188 L 106.53125 91.539062 L 85.742188 103.53125 Z M 79.371094 92.488281 " clip-rule="nonzero"/></clipPath><clipPath id="id3"><path d="M 79.371094 92.488281 L 100.160156 80.492188 L 108.40625 94.785156 L 87.617188 106.78125 Z M 79.371094 92.488281 " clip-rule="nonzero"/></clipPath><clipPath id="id4"><path d="M 87 83 L 103 83 L 103 93 L 87 93 Z M 87 83 " clip-rule="nonzero"/></clipPath><clipPath id="id5"><path d="M 79.371094 92.488281 L 100.160156 80.492188 L 106.53125 91.539062 L 85.742188 103.53125 Z M 79.371094 92.488281 " clip-rule="nonzero"/></clipPath><clipPath id="id6"><path d="M 79.371094 92.488281 L 100.160156 80.492188 L 108.40625 94.785156 L 87.617188 106.78125 Z M 79.371094 92.488281 " clip-rule="nonzero"/></clipPath></defs><g clip-path="url(#id1)"><g clip-path="url(#id2)"><g clip-path="url(#id3)"><path fill="#05c1ff" d="M 91.007812 98.269531 C 90.792969 98.183594 86.609375 96.5 84.550781 101.421875 C 84.550781 101.421875 86.476562 99.433594 88.144531 99.167969 C 89.050781 99.023438 91.863281 100.089844 92.101562 100.179688 C 92.105469 100.183594 92.109375 100.183594 92.109375 100.183594 C 92.109375 100.183594 92.113281 100.179688 92.113281 100.175781 C 92.152344 99.925781 92.636719 96.957031 93.214844 96.242188 C 94.277344 94.933594 96.964844 94.261719 96.964844 94.261719 C 91.671875 93.578125 91.035156 98.042969 91.007812 98.269531 " fill-opacity="1" fill-rule="nonzero"/></g></g></g><g clip-path="url(#id4)"><g clip-path="url(#id5)"><g clip-path="url(#id6)"><path fill="#05c1ff" d="M 95.054688 88.488281 C 94.804688 88.382812 89.902344 86.414062 87.492188 92.179688 C 87.492188 92.179688 89.75 89.847656 91.699219 89.539062 C 92.761719 89.371094 96.058594 90.617188 96.335938 90.726562 C 96.339844 90.726562 96.34375 90.726562 96.347656 90.730469 C 96.347656 90.726562 96.347656 90.722656 96.347656 90.71875 C 96.394531 90.425781 96.964844 86.945312 97.640625 86.113281 C 98.886719 84.578125 102.035156 83.789062 102.035156 83.789062 C 95.832031 82.988281 95.085938 88.21875 95.054688 88.488281 " fill-opacity="1" fill-rule="nonzero"/></g></g></g></svg>