<svg xmlns="http://www.w3.org/2000/svg" xmlns:xlink="http://www.w3.org/1999/xlink" width="250" zoomAndPan="magnify" viewBox="0 0 187.5 187.499992" height="250" preserveAspectRatio="xMidYMid meet" version="1.0"><defs><g/><clipPath id="id1"><path d="M 62 83 L 72 83 L 72 89 L 62 89 Z M 62 83 " clip-rule="nonzero"/></clipPath><clipPath id="id2"><path d="M 59.171875 82.394531 L 74.132812 73.761719 L 78.914062 82.050781 L 63.953125 90.679688 Z M 59.171875 82.394531 " clip-rule="nonzero"/></clipPath><clipPath id="id3"><path d="M 59.171875 82.394531 L 74.132812 73.761719 L 80.15625 84.203125 L 65.195312 92.832031 Z M 59.171875 82.394531 " clip-rule="nonzero"/></clipPath><clipPath id="id4"><path d="M 65 76 L 76 76 L 76 83 L 65 83 Z M 65 76 " clip-rule="nonzero"/></clipPath><clipPath id="id5"><path d="M 59.171875 82.394531 L 74.132812 73.761719 L 78.914062 82.050781 L 63.953125 90.679688 Z M 59.171875 82.394531 " clip-rule="nonzero"/></clipPath><clipPath id="id6"><path d="M 59.171875 82.394531 L 74.132812 73.761719 L 80.15625 84.203125 L 65.195312 92.832031 Z M 59.171875 82.394531 " clip-rule="nonzero"/></clipPath></defs><g clip-path="url(#id1)"><g clip-path="url(#id2)"><g clip-path="url(#id3)"><path fill="#05c1ff" d="M 67.605469 86.65625 C 67.449219 86.589844 64.417969 85.347656 62.953125 88.921875 C 62.953125 88.921875 64.335938 87.480469 65.539062 87.296875 C 66.195312 87.195312 68.230469 87.984375 68.402344 88.050781 C 68.40625 88.054688 68.410156 88.054688 68.410156 88.054688 C 68.410156 88.054688 68.410156 88.050781 68.410156 88.046875 C 68.4375 87.867188 68.777344 85.707031 69.191406 85.191406 C 69.953125 84.242188 71.890625 83.765625 71.890625 83.765625 C 68.0625 83.242188 67.625 86.492188 67.605469 86.65625 " fill-opacity="1" fill-rule="nonzero"/></g></g></g><g clip-path="url(#id4)"><g clip-path="url(#id5)"><g clip-path="url(#id6)"><path fill="#05c1ff" d="M 70.484375 79.554688 C 70.300781 79.476562 66.75 78.019531 65.035156 82.207031 C 65.035156 82.207031 66.65625 80.519531 68.066406 80.304688 C 68.832031 80.1875 71.21875 81.109375 71.417969 81.191406 C 71.421875 81.191406 71.425781 81.191406 71.425781 81.191406 C 71.425781 81.191406 71.425781 81.1875 71.429688 81.183594 C 71.460938 80.972656 71.855469 78.441406 72.339844 77.839844 C 73.234375 76.726562 75.503906 76.167969 75.503906 76.167969 C 71.019531 75.558594 70.507812 79.359375 70.484375 79.554688 " fill-opacity="1" fill-rule="nonzero"/></g></g></g><g fill="#05c1ff" fill-opacity="1"><g transform="translate(73.445835, 101.663592)"><g><path d="M 3.328125 -20.109375 L 3.328125 -13.875 C 3.328125 -12.539062 3.300781 -11.648438 3.25 -11.203125 C 5.445312 -13.160156 7.367188 -14.140625 9.015625 -14.140625 C 10.816406 -14.140625 12.097656 -13.585938 12.859375 -12.484375 C 13.628906 -11.378906 14.015625 -9.515625 14.015625 -6.890625 C 14.015625 -4.285156 13.585938 -2.425781 12.734375 -1.3125 C 11.890625 -0.207031 10.460938 0.34375 8.453125 0.34375 C 6.804688 0.34375 4.867188 0.046875 2.640625 -0.546875 L 2.640625 -20.109375 Z M 3.328125 -10.609375 L 3.328125 -1.03125 C 5.078125 -0.550781 6.785156 -0.3125 8.453125 -0.3125 C 10.191406 -0.3125 11.429688 -0.804688 12.171875 -1.796875 C 12.921875 -2.796875 13.296875 -4.492188 13.296875 -6.890625 C 13.296875 -9.285156 12.96875 -10.976562 12.3125 -11.96875 C 11.664062 -12.96875 10.566406 -13.46875 9.015625 -13.46875 C 8.160156 -13.46875 7.304688 -13.242188 6.453125 -12.796875 C 5.597656 -12.347656 4.554688 -11.617188 3.328125 -10.609375 Z M 3.328125 -10.609375 "/></g></g></g><g fill="#05c1ff" fill-opacity="1"><g transform="translate(89.476927, 101.663592)"><g><path d="M 3.421875 -20.109375 L 3.421875 -2.765625 C 3.421875 -2.015625 3.617188 -1.441406 4.015625 -1.046875 C 4.421875 -0.648438 4.988281 -0.453125 5.71875 -0.453125 L 7.390625 -0.453125 L 7.46875 0 C 7.082031 0.113281 6.46875 0.171875 5.625 0.171875 C 4.75 0.171875 4.046875 -0.078125 3.515625 -0.578125 C 2.992188 -1.085938 2.734375 -1.804688 2.734375 -2.734375 L 2.734375 -20.109375 Z M 3.421875 -20.109375 "/></g></g></g><g fill="#05c1ff" fill-opacity="1"><g transform="translate(97.233903, 101.663592)"><g><path d="M 3.359375 -12.515625 C 4.265625 -13.597656 5.828125 -14.140625 8.046875 -14.140625 C 10.265625 -14.140625 11.820312 -13.597656 12.71875 -12.515625 C 13.625 -11.429688 14.078125 -9.554688 14.078125 -6.890625 C 14.078125 -4.234375 13.625 -2.363281 12.71875 -1.28125 C 11.820312 -0.195312 10.265625 0.34375 8.046875 0.34375 C 5.828125 0.34375 4.265625 -0.195312 3.359375 -1.28125 C 2.460938 -2.363281 2.015625 -4.234375 2.015625 -6.890625 C 2.015625 -9.554688 2.460938 -11.429688 3.359375 -12.515625 Z M 12.171875 -12.03125 C 11.390625 -12.988281 10.015625 -13.46875 8.046875 -13.46875 C 6.078125 -13.46875 4.695312 -12.988281 3.90625 -12.03125 C 3.125 -11.082031 2.734375 -9.367188 2.734375 -6.890625 C 2.734375 -4.421875 3.125 -2.707031 3.90625 -1.75 C 4.695312 -0.789062 6.078125 -0.3125 8.046875 -0.3125 C 10.015625 -0.3125 11.390625 -0.789062 12.171875 -1.75 C 12.960938 -2.707031 13.359375 -4.421875 13.359375 -6.890625 C 13.359375 -9.367188 12.960938 -11.082031 12.171875 -12.03125 Z M 12.171875 -12.03125 "/></g></g></g><g fill="#05c1ff" fill-opacity="1"><g transform="translate(113.322454, 101.663592)"><g><path d="M 12.359375 -0.65625 L 12.46875 -0.140625 C 11.03125 0.179688 9.640625 0.34375 8.296875 0.34375 C 6.003906 0.34375 4.378906 -0.203125 3.421875 -1.296875 C 2.460938 -2.390625 1.984375 -4.253906 1.984375 -6.890625 C 1.984375 -9.535156 2.457031 -11.40625 3.40625 -12.5 C 4.351562 -13.59375 5.976562 -14.140625 8.28125 -14.140625 C 9.8125 -14.140625 11.101562 -13.976562 12.15625 -13.65625 L 11.984375 -13.125 C 11.078125 -13.351562 9.878906 -13.46875 8.390625 -13.46875 C 6.285156 -13.46875 4.8125 -13 3.96875 -12.0625 C 3.125 -11.125 2.703125 -9.398438 2.703125 -6.890625 C 2.703125 -4.378906 3.125 -2.65625 3.96875 -1.71875 C 4.8125 -0.78125 6.285156 -0.3125 8.390625 -0.3125 C 9.898438 -0.3125 11.222656 -0.425781 12.359375 -0.65625 Z M 12.359375 -0.65625 "/></g></g></g></svg>